<svg id="logo" xmlns="http://www.w3.org/2000/svg" width="236.765" height="41" viewBox="0 0 236.765 41">
  <g id="Group_541" data-name="Group 541">
    <g id="Group_540" data-name="Group 540">
      <path id="Path_583" data-name="Path 583" d="M110.457,52V68.4c0,9.06-16.406,16.4-16.406,16.4s-.8-.359-2.051-1.015V70.457h10.254V64.3H92l.04-6.152h10.213V52Z" transform="translate(-77.645 -43.797)" fill="#d9025f"/>
      <path id="Path_584" data-name="Path 584" d="M60.609,20v8.2H44.2v28C40.1,53.231,36,49.132,36,44.6V20Z" transform="translate(-36 -20)" fill="#553df4"/>
      <path id="Path_585" data-name="Path 585" d="M140.2,28.214H132v-8.2Z" transform="translate(-107.391 -20.011)" fill="#460b8f"/>
    </g>
  </g>
  <g id="Group_542" data-name="Group 542" transform="translate(42.023 12.164)">
    <path id="Path_586" data-name="Path 586" d="M199.934,86.311V69.34h11.291v3.18h-7.894v3.588h7.727v3.18h-7.727v7.023Z" transform="translate(-199.934 -68.857)" fill="#553df4"/>
    <path id="Path_587" data-name="Path 587" d="M253.87,99.007V86.717h3.038V88.4a4.877,4.877,0,0,1,3.684-1.985v3.155a3.757,3.757,0,0,0-3.684,1.323v8.117Z" transform="translate(-240.044 -81.552)" fill="#553df4"/>
    <path id="Path_588" data-name="Path 588" d="M285.5,92.85c0-3.562,2.464-6.438,5.98-6.438,3.445,0,5.789,2.748,5.789,6.768v.713h-8.588a3.174,3.174,0,0,0,3.325,2.85,4.751,4.751,0,0,0,3.086-1.221l1.34,2.086a6.932,6.932,0,0,1-4.761,1.7C288.159,99.312,285.5,96.793,285.5,92.85Zm5.98-3.867a2.855,2.855,0,0,0-2.847,2.722h5.693A2.755,2.755,0,0,0,291.484,88.982Z" transform="translate(-263.569 -81.552)" fill="#553df4"/>
    <path id="Path_589" data-name="Path 589" d="M338.041,92.85c0-3.562,2.464-6.438,5.981-6.438,3.445,0,5.789,2.748,5.789,6.768v.713h-8.588a3.174,3.174,0,0,0,3.325,2.85,4.75,4.75,0,0,0,3.086-1.221l1.34,2.086a6.932,6.932,0,0,1-4.761,1.7C340.7,99.312,338.041,96.793,338.041,92.85Zm5.981-3.867a2.856,2.856,0,0,0-2.847,2.722h5.694A2.755,2.755,0,0,0,344.022,88.982Z" transform="translate(-302.638 -81.552)" fill="#553df4"/>
    <path id="Path_590" data-name="Path 590" d="M393.752,86.311V69.34h7.464a5.472,5.472,0,0,1,0,10.941h-4.067v6.03Zm9.354-11.5a2.2,2.2,0,0,0-2.344-2.29h-3.612V77.1h3.612A2.211,2.211,0,0,0,403.106,74.81Z" transform="translate(-344.068 -68.857)" fill="#403737"/>
    <path id="Path_591" data-name="Path 591" d="M452.635,99.007V86.717h3.038V88.4a4.877,4.877,0,0,1,3.684-1.985v3.155a3.758,3.758,0,0,0-3.684,1.323v8.117Z" transform="translate(-387.857 -81.552)" fill="#403737"/>
    <path id="Path_592" data-name="Path 592" d="M485.948,69.362a1.822,1.822,0,1,1,1.818,1.934A1.893,1.893,0,0,1,485.948,69.362Zm.311,15.546V72.619H489.3v12.29Z" transform="translate(-412.63 -67.454)" fill="#403737"/>
    <path id="Path_593" data-name="Path 593" d="M509.905,99.893,505.264,87.6h3.254l3.014,8.549,3.014-8.549h3.277l-4.641,12.29Z" transform="translate(-426.995 -82.438)" fill="#403737"/>
    <path id="Path_594" data-name="Path 594" d="M565.293,99.007V97.735a4.644,4.644,0,0,1-3.66,1.578,3.956,3.956,0,0,1-4.019-4.071,3.791,3.791,0,0,1,4.019-3.969,4.608,4.608,0,0,1,3.66,1.5V91.119c0-1.247-1-2.061-2.536-2.061a4.712,4.712,0,0,0-3.373,1.45l-1.148-2.163a7.309,7.309,0,0,1,5.048-1.934c2.631,0,5.048,1.119,5.048,4.656v7.938Zm0-2.952V94.529a2.955,2.955,0,0,0-2.44-1.069,1.934,1.934,0,0,0-2.177,1.857c0,1.145.981,1.806,2.177,1.806A2.954,2.954,0,0,0,565.293,96.055Z" transform="translate(-465.925 -81.552)" fill="#403737"/>
    <path id="Path_595" data-name="Path 595" d="M609.219,92.85c0-3.766,2.56-6.438,6.124-6.438a5.267,5.267,0,0,1,4.569,2.214l-1.985,1.985a2.756,2.756,0,0,0-2.44-1.323c-1.842,0-3.134,1.425-3.134,3.562s1.292,3.588,3.134,3.588a2.868,2.868,0,0,0,2.44-1.323l1.985,1.959a5.221,5.221,0,0,1-4.569,2.239C611.779,99.312,609.219,96.641,609.219,92.85Z" transform="translate(-504.302 -81.552)" fill="#403737"/>
    <path id="Path_596" data-name="Path 596" d="M654.869,101.8a2.486,2.486,0,0,0,.957.2,1.515,1.515,0,0,0,1.6-.891l.43-1.043L653.17,87.6h3.254l3.014,8.549,3.014-8.549h3.277l-5.43,14.3a4.193,4.193,0,0,1-4.378,2.977,7.826,7.826,0,0,1-1.507-.178Z" transform="translate(-536.986 -82.438)" fill="#403737"/>
    <path id="Path_597" data-name="Path 597" d="M708.694,86.311V69.34h7.464a5.472,5.472,0,0,1,0,10.941h-4.067v6.03Zm9.354-11.5a2.2,2.2,0,0,0-2.344-2.29h-3.612V77.1H715.7A2.211,2.211,0,0,0,718.048,74.81Z" transform="translate(-578.277 -68.857)" fill="#403737"/>
    <path id="Path_598" data-name="Path 598" d="M763.1,92.85c0-3.486,2.3-6.438,6.1-6.438,3.827,0,6.124,2.952,6.124,6.438,0,3.511-2.3,6.463-6.124,6.463C765.395,99.312,763.1,96.361,763.1,92.85Zm9.067,0c0-1.908-1.077-3.562-2.966-3.562s-2.943,1.654-2.943,3.562c0,1.934,1.053,3.588,2.943,3.588S772.165,94.783,772.165,92.85Z" transform="translate(-618.735 -81.552)" fill="#403737"/>
    <path id="Path_599" data-name="Path 599" d="M820.487,86.311V69.34h3.038V86.311Z" transform="translate(-661.413 -68.857)" fill="#403737"/>
    <path id="Path_600" data-name="Path 600" d="M843.816,69.362a1.822,1.822,0,1,1,1.818,1.934A1.893,1.893,0,0,1,843.816,69.362Zm.311,15.546V72.619h3.038v12.29Z" transform="translate(-678.761 -67.454)" fill="#403737"/>
    <path id="Path_601" data-name="Path 601" d="M866.678,92.85c0-3.766,2.56-6.438,6.124-6.438a5.267,5.267,0,0,1,4.569,2.214l-1.986,1.985a2.755,2.755,0,0,0-2.44-1.323c-1.842,0-3.134,1.425-3.134,3.562s1.292,3.588,3.134,3.588a2.867,2.867,0,0,0,2.44-1.323l1.986,1.959a5.221,5.221,0,0,1-4.569,2.239C869.238,99.312,866.678,96.641,866.678,92.85Z" transform="translate(-695.763 -81.552)" fill="#403737"/>
    <path id="Path_602" data-name="Path 602" d="M912.329,101.8a2.487,2.487,0,0,0,.957.2,1.514,1.514,0,0,0,1.6-.891l.431-1.043L910.63,87.6h3.254l3.014,8.549,3.014-8.549h3.277l-5.43,14.3a4.193,4.193,0,0,1-4.378,2.977,7.829,7.829,0,0,1-1.507-.178Z" transform="translate(-728.448 -82.438)" fill="#403737"/>
  </g>
</svg>
